<svg id="Group_2312" data-name="Group 2312" xmlns="http://www.w3.org/2000/svg" width="50" height="51.715" viewBox="0 0 50 51.715">
  <path id="Union_2" data-name="Union 2" fill="#41AE7C" d="M5.686,46.733C1.753,43.231,0,37.837,0,29.243c0-1.669.066-3.217.2-4.655a1.877,1.877,0,0,1,.046-.466C.856,18.412,2.6,14.5,5.686,11.751a18.893,18.893,0,0,1,9.25-4.167C14.958,3.4,18.113,0,21.989,0h6.022c3.876,0,7.032,3.4,7.053,7.585a18.9,18.9,0,0,1,9.25,4.167c3.083,2.747,4.827,6.658,5.436,12.365a1.876,1.876,0,0,1,.048.48c.135,1.435.2,2.982.2,4.648,0,8.594-1.753,13.988-5.685,17.49C40.448,50.178,34.491,51.715,25,51.715S9.552,50.178,5.686,46.733Zm-1.92-17.49c0,7.426,1.365,11.952,4.424,14.678C11.317,46.707,16.5,47.95,25,47.95s13.684-1.243,16.81-4.028c3.06-2.726,4.425-7.252,4.425-14.678q0-.812-.022-1.577a46.685,46.685,0,0,1-19.331,4.785v4.741a1.883,1.883,0,1,1-3.766,0V32.451a46.691,46.691,0,0,1-19.33-4.785Q3.766,28.432,3.766,29.243Zm21.4-.523a42.624,42.624,0,0,0,20.73-5.156c-.576-4.187-1.9-7.053-4.083-9C38.684,11.777,33.5,10.536,25,10.536S11.317,11.777,8.19,14.563c-2.186,1.947-3.506,4.814-4.083,9a42.626,42.626,0,0,0,20.73,5.157c.054,0,.108-.007.163-.007S25.11,28.715,25.164,28.72Zm6.1-21.677a3.51,3.51,0,0,0-3.251-3.277H21.989a3.511,3.511,0,0,0-3.251,3.277c1.9-.184,3.976-.273,6.263-.273S29.367,6.859,31.263,7.043Z"/>
</svg>
