<svg id="Group_2314" data-name="Group 2314" xmlns="http://www.w3.org/2000/svg" width="50" height="40.253" viewBox="0 0 50 40.253">
  <g id="Group_2310" data-name="Group 2310" transform="translate(0)">
    <path id="Union_5" data-name="Union 5" d="M7.439,33.759C2.78,29.82,0,24.726,0,20.125S2.78,10.433,7.439,6.494a27,27,0,0,1,35.122,0C47.223,10.43,50,15.524,50,20.125s-2.777,9.7-7.438,13.637a27,27,0,0,1-35.122,0ZM3.75,20.125C3.75,27.5,13.556,36.5,25,36.5S46.251,27.5,46.251,20.125,36.447,3.749,25,3.749,3.75,12.756,3.75,20.125Zm11.473,0A9.779,9.779,0,1,1,25,29.9,9.79,9.79,0,0,1,15.223,20.125Zm3.75,0A6.029,6.029,0,1,0,25,14.1,6.036,6.036,0,0,0,18.973,20.125Z" transform="translate(0)"/>
  </g>
</svg>
