<svg id="Group_2313" data-name="Group 2313" xmlns="http://www.w3.org/2000/svg" width="50" height="43.164" viewBox="0 0 50 43.164">
  <path id="Union_4" data-name="Union 4" d="M3.967,42.616a1.868,1.868,0,0,1,0-2.649l4.18-4.181C3.14,31.85,0,26.463,0,21.591c0-4.6,2.779-9.693,7.433-13.628A27.264,27.264,0,0,1,24.987,1.475a26.931,26.931,0,0,1,13.7,3.766L43.381.548A1.874,1.874,0,0,1,46.033,3.2L12.526,36.7a1.869,1.869,0,0,1-.337.338L6.615,42.616a1.873,1.873,0,0,1-2.648,0ZM3.749,21.591c0,3.8,2.792,8.287,7.071,11.52l6.067-6.068A9.775,9.775,0,0,1,24.969,11.8h.024a9.825,9.825,0,0,1,5.462,1.675l5.481-5.482A23.116,23.116,0,0,0,24.987,5.221C13.551,5.221,3.749,14.223,3.749,21.591Zm16.972-4.273a6.055,6.055,0,0,0-1.1,6.994l8.1-8.1a6.045,6.045,0,0,0-2.729-.659h-.016A5.981,5.981,0,0,0,20.721,17.318ZM17.913,40.738a1.875,1.875,0,0,1,1-3.613,22.8,22.8,0,0,0,6.072.833c11.449,0,21.264-9,21.264-16.367a12.914,12.914,0,0,0-3.121-7.663,1.874,1.874,0,0,1,2.943-2.321A16.622,16.622,0,0,1,50,21.591c0,4.6-2.783,9.689-7.446,13.625A27.3,27.3,0,0,1,24.987,41.7,26.565,26.565,0,0,1,17.913,40.738Zm6.662-11.062a1.877,1.877,0,0,1,1.5-2.181,6.04,6.04,0,0,0,4.834-4.84,1.875,1.875,0,1,1,3.689.666,9.809,9.809,0,0,1-7.845,7.861,1.838,1.838,0,0,1-.341.031A1.874,1.874,0,0,1,24.575,29.675Z"/>
</svg>
