<svg xmlns="http://www.w3.org/2000/svg" width="50" height="37.567" viewBox="0 0 50 37.567">
  <path id="Icon_ionic-md-backspace" data-name="Icon ionic-md-backspace" d="M48.867,6.75H17.6a3.926,3.926,0,0,0-3.311,1.831L3.023,25.534l11.27,16.929A3.948,3.948,0,0,0,17.6,44.317H48.856a4.186,4.186,0,0,0,4.168-4.179V10.929A4.169,4.169,0,0,0,48.867,6.75ZM42.61,33.024,39.675,35.97,32.2,28.48l-7.478,7.49-2.935-2.947,7.478-7.49-7.478-7.49L24.719,15.1l7.478,7.49,7.478-7.49,2.935,2.947-7.478,7.49Z" transform="translate(-3.023 -6.75)"/>
</svg>
