<svg xmlns="http://www.w3.org/2000/svg" width="50" height="33.333" viewBox="0 0 50 33.333">
  <path id="Icon_awesome-keyboard" data-name="Icon awesome-keyboard" d="M45.833,33.333H4.167A4.167,4.167,0,0,1,0,29.167v-25A4.167,4.167,0,0,1,4.167,0H45.833A4.167,4.167,0,0,1,50,4.167v25A4.167,4.167,0,0,1,45.833,33.333ZM11.111,10.069V6.6a1.042,1.042,0,0,0-1.042-1.042H6.6A1.042,1.042,0,0,0,5.556,6.6v3.472A1.042,1.042,0,0,0,6.6,11.111h3.472A1.042,1.042,0,0,0,11.111,10.069Zm8.333,0V6.6A1.042,1.042,0,0,0,18.4,5.556H14.931A1.042,1.042,0,0,0,13.889,6.6v3.472a1.042,1.042,0,0,0,1.042,1.042H18.4A1.042,1.042,0,0,0,19.444,10.069Zm8.333,0V6.6a1.042,1.042,0,0,0-1.042-1.042H23.264A1.042,1.042,0,0,0,22.222,6.6v3.472a1.042,1.042,0,0,0,1.042,1.042h3.472A1.042,1.042,0,0,0,27.778,10.069Zm8.333,0V6.6a1.042,1.042,0,0,0-1.042-1.042H31.6A1.042,1.042,0,0,0,30.556,6.6v3.472A1.042,1.042,0,0,0,31.6,11.111h3.472A1.042,1.042,0,0,0,36.111,10.069Zm8.333,0V6.6A1.042,1.042,0,0,0,43.4,5.556H39.931A1.042,1.042,0,0,0,38.889,6.6v3.472a1.042,1.042,0,0,0,1.042,1.042H43.4A1.042,1.042,0,0,0,44.444,10.069ZM15.278,18.4V14.931a1.042,1.042,0,0,0-1.042-1.042H10.764a1.042,1.042,0,0,0-1.042,1.042V18.4a1.042,1.042,0,0,0,1.042,1.042h3.472A1.042,1.042,0,0,0,15.278,18.4Zm8.333,0V14.931a1.042,1.042,0,0,0-1.042-1.042H19.1a1.042,1.042,0,0,0-1.042,1.042V18.4A1.042,1.042,0,0,0,19.1,19.444h3.472A1.042,1.042,0,0,0,23.611,18.4Zm8.333,0V14.931A1.042,1.042,0,0,0,30.9,13.889H27.431a1.042,1.042,0,0,0-1.042,1.042V18.4a1.042,1.042,0,0,0,1.042,1.042H30.9A1.042,1.042,0,0,0,31.944,18.4Zm8.333,0V14.931a1.042,1.042,0,0,0-1.042-1.042H35.764a1.042,1.042,0,0,0-1.042,1.042V18.4a1.042,1.042,0,0,0,1.042,1.042h3.472A1.042,1.042,0,0,0,40.278,18.4ZM11.111,26.736V23.264a1.042,1.042,0,0,0-1.042-1.042H6.6a1.042,1.042,0,0,0-1.042,1.042v3.472A1.042,1.042,0,0,0,6.6,27.778h3.472A1.042,1.042,0,0,0,11.111,26.736Zm25,0V23.264a1.042,1.042,0,0,0-1.042-1.042H14.931a1.042,1.042,0,0,0-1.042,1.042v3.472a1.042,1.042,0,0,0,1.042,1.042H35.069A1.042,1.042,0,0,0,36.111,26.736Zm8.333,0V23.264A1.042,1.042,0,0,0,43.4,22.222H39.931a1.042,1.042,0,0,0-1.042,1.042v3.472a1.042,1.042,0,0,0,1.042,1.042H43.4A1.042,1.042,0,0,0,44.444,26.736Z"/>
</svg>
