<svg xmlns="http://www.w3.org/2000/svg" width="48.733" height="50" viewBox="0 0 48.733 50">
  <path id="Icon_awesome-arrow-down" data-name="Icon awesome-arrow-down" d="M21.259,45.469l2.477,2.477a2.667,2.667,0,0,0,3.783,0L49.213,26.264a2.667,2.667,0,0,0,0-3.783L27.519.787a2.667,2.667,0,0,0-3.783,0L21.259,3.264A2.681,2.681,0,0,0,21.3,7.092L34.751,19.9H2.678A2.672,2.672,0,0,0,0,22.581v3.571A2.672,2.672,0,0,0,2.678,28.83H34.751L21.3,41.642A2.662,2.662,0,0,0,21.259,45.469Z" transform="translate(48.733) rotate(90)"/>
</svg>
