<svg xmlns="http://www.w3.org/2000/svg" width="45.833" height="50" viewBox="0 0 45.833 50">
  <path id="Icon_metro-shift" data-name="Icon metro-shift" d="M40.724,55.784H19.891A2.083,2.083,0,0,1,17.807,53.7V30.784H9.474A2.083,2.083,0,0,1,8,27.228L28.834,6.394a2.083,2.083,0,0,1,2.946,0L52.614,27.228a2.083,2.083,0,0,1-1.473,3.557H42.807V53.7A2.083,2.083,0,0,1,40.724,55.784Zm-18.75-4.167H38.641V28.7a2.083,2.083,0,0,1,2.083-2.083h5.387l-15.8-15.8-15.8,15.8h5.387A2.083,2.083,0,0,1,21.974,28.7V51.617Z" transform="translate(-7.391 -5.784)"/>
</svg>
