<svg xmlns="http://www.w3.org/2000/svg" width="50" height="50" viewBox="0 0 50 50">
  <path id="Icon_material-language" fill="white" data-name="Icon material-language" d="M27.975,3A25,25,0,1,0,53,28,24.988,24.988,0,0,0,27.975,3ZM45.3,18H37.925a39.123,39.123,0,0,0-3.45-8.9A20.074,20.074,0,0,1,45.3,18ZM28,8.1A35.217,35.217,0,0,1,32.775,18h-9.55A35.217,35.217,0,0,1,28,8.1ZM8.65,33a19.556,19.556,0,0,1,0-10H17.1a41.288,41.288,0,0,0-.35,5,41.288,41.288,0,0,0,.35,5Zm2.05,5h7.375a39.123,39.123,0,0,0,3.45,8.9A19.967,19.967,0,0,1,10.7,38Zm7.375-20H10.7A19.967,19.967,0,0,1,21.525,9.1,39.123,39.123,0,0,0,18.075,18ZM28,47.9A35.217,35.217,0,0,1,23.225,38h9.55A35.217,35.217,0,0,1,28,47.9ZM33.85,33H22.15a36.782,36.782,0,0,1-.4-5,36.463,36.463,0,0,1,.4-5h11.7a36.461,36.461,0,0,1,.4,5A36.781,36.781,0,0,1,33.85,33Zm.625,13.9a39.123,39.123,0,0,0,3.45-8.9H45.3A20.074,20.074,0,0,1,34.475,46.9ZM38.9,33a41.288,41.288,0,0,0,.35-5,41.289,41.289,0,0,0-.35-5h8.45a19.556,19.556,0,0,1,0,10Z" transform="translate(-3 -3)"/>
</svg>
