<svg id="Group_2311" data-name="Group 2311" xmlns="http://www.w3.org/2000/svg" width="36.579" height="50" viewBox="0 0 36.579 50">
  <path id="Union_3" data-name="Union 3" fill="#41AE7C" d="M6.125,48.519C1.065,46.772,0,43.612,0,41.27c0-3.287,2.079-6.535,5.707-8.917a23.156,23.156,0,0,1,12.586-3.545,23.245,23.245,0,0,1,12.561,3.517c3.639,2.37,5.726,5.612,5.726,8.894,0,2.342-1.056,5.5-6.1,7.269C27.575,49.5,23.588,50,18.293,50S9.02,49.516,6.125,48.519ZM7.688,35.375c-2.591,1.7-4.075,3.848-4.075,5.9,0,3.4,4.939,5.117,14.68,5.117s14.676-1.739,14.676-5.167c0-2.036-1.489-4.174-4.086-5.867a19.885,19.885,0,0,0-10.59-2.934A19.769,19.769,0,0,0,7.688,35.375ZM18.2,24.742a12.4,12.4,0,1,1,.073,0ZM9.512,12.374A8.729,8.729,0,0,0,18.2,21.129h.068a8.758,8.758,0,1,0-8.761-8.755Z" transform="translate(0)"/>
</svg>
